<?xml version="1.0" encoding="UTF-8" standalone="no"?>
<!-- Created with Inkscape (http://www.inkscape.org/) -->

<svg
   width="720"
   height="720"
   viewBox="0 0 720 720"
   version="1.1"
   id="svg1"
   xml:space="preserve"
   inkscape:version="1.4.3 (0d15f75042, 2025-12-25)"
   sodipodi:docname="oikos.svg"
   xmlns:inkscape="http://www.inkscape.org/namespaces/inkscape"
   xmlns:sodipodi="http://sodipodi.sourceforge.net/DTD/sodipodi-0.dtd"
   xmlns="http://www.w3.org/2000/svg"
   xmlns:svg="http://www.w3.org/2000/svg"><sodipodi:namedview
     id="namedview1"
     pagecolor="#ffffff"
     bordercolor="#000000"
     borderopacity="0.25"
     inkscape:showpageshadow="2"
     inkscape:pageopacity="0.0"
     inkscape:pagecheckerboard="0"
     inkscape:deskcolor="#d1d1d1"
     inkscape:document-units="px"
     showguides="true"
     inkscape:zoom="1.65"
     inkscape:cx="330.60606"
     inkscape:cy="373.93939"
     inkscape:window-width="1920"
     inkscape:window-height="1043"
     inkscape:window-x="0"
     inkscape:window-y="0"
     inkscape:window-maximized="1"
     inkscape:current-layer="layer1"><sodipodi:guide
       position="145.71844,619.95787"
       orientation="0,-1"
       id="guide1"
       inkscape:locked="false" /><sodipodi:guide
       position="277.69608,100.12025"
       orientation="0,-1"
       id="guide2"
       inkscape:locked="false" /><sodipodi:guide
       position="100,441.56863"
       orientation="1,0"
       id="guide3"
       inkscape:locked="false" /><sodipodi:guide
       position="619.80316,480.42816"
       orientation="1,0"
       id="guide4"
       inkscape:locked="false" /><sodipodi:guide
       position="-54.901961,481.76471"
       orientation="0,-1"
       id="guide9"
       inkscape:locked="false" /><sodipodi:guide
       position="-45.53079,191.8367"
       orientation="0,-1"
       id="guide10"
       inkscape:locked="false" /><sodipodi:guide
       position="-39.357384,404.73882"
       orientation="0,-1"
       id="guide11"
       inkscape:locked="false" /><sodipodi:guide
       position="-68.895527,291.54948"
       orientation="0,-1"
       id="guide14"
       inkscape:locked="false" /></sodipodi:namedview><defs
     id="defs1" /><g
     inkscape:label="Capa 1"
     inkscape:groupmode="layer"
     id="layer1"><g
       id="Capa_1"
       class="st0"
       transform="matrix(1.5324041,0,0,1.5348701,51.614232,53.275429)">
	<path
   class="st1"
   d="M 203.2,14 C 71.7,12.7 -34.9,120.5 -34.9,252 v 193.4 c 0,22.4 18.1,40.5 40.5,40.5 h 193 c 131.5,0 239.3,-106.5 238.3,-238 C 435.8,119.2 331.9,15.2 203.2,14 Z"
   id="path1" />
</g><g
       id="Capa_3"
       class="st0"
       transform="matrix(1.5324041,0,0,1.5348701,51.614232,53.275429)">
	<path
   class="st2"
   d="m 387.9,434.6 c -21.1,21.3 -45.2,38.5 -71.3,51.4 h 79.7 c 22.4,0 40.5,-18.1 40.5,-40.5 v -78.8 c -12.5,24.7 -28.7,47.6 -48.9,67.9 z"
   id="path2" />
</g><g
       id="Capa_2"
       class="st0"
       transform="matrix(1.5324041,0,0,1.5348701,51.614232,53.275429)">
	<path
   class="st2"
   d="m 204.4,318.1 c -23.5,0 -44.1,-12 -56.2,-30.2 l 123.2,-44.8 47.8,-17.4 C 317,215.4 313.4,205.6 308.6,196.5 289,158.9 249.7,133.2 204.3,133.2 c -64.9,0 -117.5,52.6 -117.5,117.5 0,8.8 1,17.3 2.8,25.5 2.3,10.3 5.9,20.1 10.7,29.2 19.7,37.4 58.9,62.8 104,62.8 50.8,0 94,-32.2 110.4,-77.3 l -47.1,-17.1 c -9.3,25.8 -34.1,44.3 -63.2,44.3 z m -67.5,-67.4 c 0,-37.2 30.2,-67.4 67.4,-67.4 23.6,0 44.4,12.2 56.5,30.6 l -123.4,44.9 c -0.3,-2.7 -0.5,-5.4 -0.5,-8.1 z"
   id="path3" />
</g><path
       class="st4"
       d="m 565.41828,565.24167 c -23.27682,23.45143 -49.83981,42.5143 -78.45661,56.77716 h 87.63042 c 24.64607,0 44.49984,-19.88572 44.49984,-44.57145 v -86.81144 c -13.69226,27.01715 -31.49219,52.25145 -53.67365,74.60573 z"
       id="path4"
       style="fill:#ffcc00;stroke-width:1.37033;fill-opacity:1" /><path
       class="st3"
       d="M 362.0883,101.56157 C 217.36117,100.19014 100.01855,218.95588 100.01855,363.91592 V 577.1731 c 0,24.68572 19.85377,44.57145 44.49983,44.57145 h 212.36687 c 144.72712,0 263.43898,-117.39431 262.3436,-262.49149 C 618.13347,217.58446 503.80314,102.79585 362.0883,101.56157 Z"
       id="path5"
       style="fill:#00aad4;stroke-width:1.37033;fill-opacity:1" /><path
       id="path6"
       style="fill:#ffcc00;stroke-width:2.43068"
       d="M 360 191.38477 A 164.84145 168.61549 0 0 0 195.1582 360 A 164.84145 168.61549 0 0 0 360 528.61523 A 164.84145 168.61549 0 0 0 524.8418 360 A 164.84145 168.61549 0 0 0 360 191.38477 z M 360 271.28711 A 86.727898 88.713539 0 0 1 446.72852 360 A 86.727898 88.713539 0 0 1 360 448.71289 A 86.727898 88.713539 0 0 1 273.27148 360 A 86.727898 88.713539 0 0 1 360 271.28711 z " /><g
       id="g16"
       transform="translate(-232.12121,-96.969697)" /></g><style
     type="text/css"
     id="style1">
	.st0{display:none;}
	.st1{display:inline;fill:#23283A;}
	.st2{display:inline;fill:#FF404A;}
	.st3{fill:#23283A;}
	.st4{fill:#FF404A;}
</style></svg>
